<?xml version="1.0" encoding="UTF-8" standalone="no"?>
<!-- Created with Inkscape (http://www.inkscape.org/) -->

<svg
   xmlns:osb="http://www.openswatchbook.org/uri/2009/osb"
   xmlns:dc="http://purl.org/dc/elements/1.1/"
   xmlns:cc="http://creativecommons.org/ns#"
   xmlns:rdf="http://www.w3.org/1999/02/22-rdf-syntax-ns#"
   xmlns:svg="http://www.w3.org/2000/svg"
   xmlns="http://www.w3.org/2000/svg"
   xmlns:sodipodi="http://sodipodi.sourceforge.net/DTD/sodipodi-0.dtd"
   xmlns:inkscape="http://www.inkscape.org/namespaces/inkscape"
   width="210mm"
   height="297mm"
   viewBox="0 0 744.09448819 1052.3622047"
   id="svg2"
   version="1.1"
   inkscape:version="0.91 r13725"
   sodipodi:docname="dropcat.svg">
  <defs
     id="defs4">
    <linearGradient
       id="linearGradient4170"
       osb:paint="solid">
      <stop
         style="stop-color:#0077c0;stop-opacity:1;"
         offset="0"
         id="stop4172" />
    </linearGradient>
  </defs>
  <sodipodi:namedview
     id="base"
     pagecolor="#ffffff"
     bordercolor="#666666"
     borderopacity="1.0"
     inkscape:pageopacity="0.0"
     inkscape:pageshadow="2"
     inkscape:zoom="0.84"
     inkscape:cx="123.66122"
     inkscape:cy="570.91446"
     inkscape:document-units="px"
     inkscape:current-layer="layer1"
     showgrid="false"
     showguides="true"
     inkscape:guide-bbox="true"
     inkscape:window-width="1920"
     inkscape:window-height="1013"
     inkscape:window-x="0"
     inkscape:window-y="27"
     inkscape:window-maximized="1">
    <sodipodi:guide
       position="136.71995,756.45557"
       orientation="0,1"
       id="guide4216" />
  </sodipodi:namedview>
  <metadata
     id="metadata7">
    <rdf:RDF>
      <cc:Work
         rdf:about="">
        <dc:format>image/svg+xml</dc:format>
        <dc:type
           rdf:resource="http://purl.org/dc/dcmitype/StillImage" />
        <dc:title></dc:title>
      </cc:Work>
    </rdf:RDF>
  </metadata>
  <g
     inkscape:label="Layer 1"
     inkscape:groupmode="layer"
     id="layer1">
    <circle
       style="fill:none;fill-opacity:0.11764706;stroke:#000000;stroke-opacity:1"
       id="path4160"
       cx="353.31131"
       cy="410.69684"
       r="109.23728"
       inkscape:export-filename="/home/mikke/Skrivbord/dropcat_logo.png"
       inkscape:export-xdpi="90"
       inkscape:export-ydpi="90" />
    <flowRoot
       xml:space="preserve"
       id="flowRoot3336"
       style="fill:black;stroke:none;stroke-opacity:1;stroke-width:1px;stroke-linejoin:miter;stroke-linecap:butt;fill-opacity:1;font-family:'Pixelfarm Pets (united)';font-style:normal;font-weight:normal;font-size:40px;line-height:125%;letter-spacing:0px;word-spacing:0px;-inkscape-font-specification:'Pixelfarm Pets (united)';font-stretch:normal;font-variant:normal;"><flowRegion
         id="flowRegion3338"><rect
           id="rect3340"
           width="600"
           height="774.28571"
           x="111.42857"
           y="215.21935"
           style="-inkscape-font-specification:'Pixelfarm Pets (united)';font-family:'Pixelfarm Pets (united)';font-weight:normal;font-style:normal;font-stretch:normal;font-variant:normal;" /></flowRegion><flowPara
         id="flowPara3342" /></flowRoot>    <g
       style="font-style:normal;font-variant:normal;font-weight:normal;font-stretch:normal;font-size:40px;line-height:125%;font-family:'Pixelfarm Pets (united)';-inkscape-font-specification:'Pixelfarm Pets (united)';letter-spacing:0px;word-spacing:0px;fill:#000000;fill-opacity:1;stroke:none;stroke-width:1px;stroke-linecap:butt;stroke-linejoin:miter;stroke-opacity:1"
       id="text4176"
       inkscape:export-filename="/home/mikke/Skrivbord/dropcat_logo.png"
       inkscape:export-xdpi="90"
       inkscape:export-ydpi="90"
       transform="translate(227.38095,79.761905)">
      <path
         d="m 171.5116,291.54397 q 0,9.72 -4.5,17.64 -4.5,7.92 -15.84,12.78 0.54,2.34 1.44,5.94 0.9,3.42 1.8,7.02 0.9,3.42 1.8,6.3 1.08,2.7 1.62,3.78 1.62,3.24 1.62,6.66 0,3.42 -1.44,6.3 -1.44,2.88 -4.68,4.86 -3.06,1.98 -7.92,2.52 l -21.06,0 -21.6,0 q -4.860001,-0.54 -8.100001,-2.52 -3.06,-1.98 -4.5,-4.86 -1.44,-2.88 -1.26,-6.3 0.36,-3.42 2.34,-6.66 0.54,-1.08 1.08,-3.78 0.72,-2.7 1.26,-5.94 0.72,-3.42 1.26,-7.02 0.72,-3.6 1.26,-6.3 -10.8,-4.32 -15.12,-12.42 -4.32,-8.28 -4.32,-18 0,-2.7 0.54,-5.04 0.54,-2.34 1.62,-5.04 1.08,-3.06 3.06,-8.28 1.98,-5.4 5.04,-11.34 3.06,-5.94 7.2,-11.7 4.32,-5.76 9.900001,-9.9 1.62,-1.44 3.06,0.36 1.44,1.62 2.34,4.86 1.08,3.06 1.62,6.84 0.72,3.6 1.08,5.94 2.7,0 5.76,-0.36 3.06,-0.36 5.76,-0.36 3.24,0 6.12,0.18 2.88,0 5.58,0.54 0.18,-2.34 0.72,-5.94 0.72,-3.78 1.8,-6.84 1.08,-3.24 2.34,-4.86 1.44,-1.8 3.06,-0.36 5.58,4.14 9.9,10.08 4.5,5.94 7.56,12.06 3.24,6.12 5.4,11.7 2.16,5.4 3.24,8.64 0.36,1.08 0.54,1.8 0.18,0.72 0.9,1.26 l 0,1.44 q 0,0.9 0.36,2.16 0.36,1.08 0.36,2.16 z m -74.520001,20.88 q 4.320001,0 7.380001,-2.7 3.24,-2.88 3.24,-7.38 0,-4.32 -3.24,-7.2 -3.06,-2.88 -7.380001,-2.88 -5.04,0 -8.28,2.88 -3.24,2.88 -3.24,7.2 0,4.5 3.24,7.38 3.24,2.7 8.28,2.7 z m 30.960001,-4.14 -2.16,-1.62 2.16,-1.44 -2.16,-2.16 -2.16,2.16 -1.98,-2.16 -1.62,2.16 1.62,1.44 -2.16,1.62 1.26,1.98 2.88,-1.98 2.88,1.98 1.44,-1.98 z m 23.94,4.14 q 4.5,0 7.56,-2.7 3.24,-2.88 3.24,-7.38 0,-4.32 -3.24,-7.2 -3.06,-2.88 -7.56,-2.88 -4.86,0 -8.28,2.88 -3.24,2.88 -3.24,7.2 0,4.5 3.24,7.38 3.42,2.7 8.28,2.7 z"
         style="font-size:180px;fill:#000000;fill-opacity:1"
         id="path4183"
         inkscape:connector-curvature="0" />
      <path
         style="fill:#ffcc00;fill-opacity:1;stroke:none;stroke-opacity:1"
         d="m 149.82706,312.0107 c -5.62545,-0.72462 -9.13768,-4.39511 -9.16465,-9.57763 -0.0277,-5.31703 4.09422,-9.3523 10.11027,-9.89782 4.50972,-0.40893 9.10857,2.07737 10.83546,5.85802 0.87875,1.92382 0.94063,5.84148 0.12322,7.80128 -1.73477,4.15924 -6.54027,6.50709 -11.9043,5.81615 z"
         id="path4195"
         inkscape:connector-curvature="0" />
      <path
         style="fill:#ffcc00;fill-opacity:1;stroke:none;stroke-opacity:1"
         d="m 92.087216,311.42591 c -2.145965,-0.76107 -4.526569,-2.8759 -5.499344,-4.88538 -0.954474,-1.97168 -1.083882,-5.76906 -0.263508,-7.73249 1.436306,-3.43757 5.28251,-5.93045 9.69662,-6.28477 5.982496,-0.48022 11.303546,3.99405 11.303546,9.50472 0,2.82418 -0.65499,4.74766 -2.25204,6.61345 -2.04217,2.38581 -4.55815,3.40495 -8.325516,3.37237 -1.692409,-0.0146 -3.7893,-0.27919 -4.659758,-0.5879 z"
         id="path4197"
         inkscape:connector-curvature="0" />
    </g>
    <text
       xml:space="preserve"
       style="font-style:normal;font-weight:normal;font-size:40px;line-height:125%;font-family:sans-serif;letter-spacing:0px;word-spacing:0px;fill:#000000;fill-opacity:1;stroke:none;stroke-width:1px;stroke-linecap:butt;stroke-linejoin:miter;stroke-opacity:1"
       x="278.5029"
       y="475.58752"
       id="text4156"
       sodipodi:linespacing="125%"
       inkscape:export-filename="/home/mikke/Skrivbord/dropcat_logo.png"
       inkscape:export-xdpi="90"
       inkscape:export-ydpi="90"><tspan
         sodipodi:role="line"
         id="tspan4158"
         x="278.5029"
         y="475.58752"
         style="font-style:normal;font-variant:normal;font-weight:normal;font-stretch:normal;font-family:'Open Sans';-inkscape-font-specification:'Open Sans'">dropcat</tspan></text>
    <ellipse
       style="fill:#000000;fill-opacity:1;stroke:none;stroke-opacity:1"
       id="path4199"
       cx="323.94867"
       cy="381.61792"
       rx="4.0387025"
       ry="5.7695746"
       inkscape:export-filename="/home/mikke/Skrivbord/dropcat_logo.png"
       inkscape:export-xdpi="90"
       inkscape:export-ydpi="90" />
    <ellipse
       style="fill:#000000;fill-opacity:1;stroke:none;stroke-opacity:1"
       id="path4199-9"
       cx="377.99765"
       cy="381.56354"
       rx="4.0387025"
       ry="5.7695746"
       inkscape:export-filename="/home/mikke/Skrivbord/dropcat_logo.png"
       inkscape:export-xdpi="90"
       inkscape:export-ydpi="90" />
  </g>
</svg>
